<svg width="24" height="25" viewBox="0 0 24 25" fill="none" xmlns="http://www.w3.org/2000/svg">
<path d="M12 19.5714C12.1978 19.5714 12.3911 19.5128 12.5556 19.4029C12.72 19.293 12.8482 19.1368 12.9239 18.9541C12.9996 18.7714 13.0194 18.5703 12.9808 18.3763C12.9422 18.1823 12.847 18.0042 12.7071 17.8643C12.5673 17.7245 12.3891 17.6292 12.1951 17.5906C12.0011 17.552 11.8 17.5718 11.6173 17.6475C11.4346 17.7232 11.2784 17.8514 11.1685 18.0158C11.0586 18.1803 11 18.3736 11 18.5714C11 18.8366 11.1054 19.091 11.2929 19.2785C11.4804 19.4661 11.7348 19.5714 12 19.5714ZM17 19.5714C17.1978 19.5714 17.3911 19.5128 17.5556 19.4029C17.72 19.293 17.8482 19.1368 17.9239 18.9541C17.9996 18.7714 18.0194 18.5703 17.9808 18.3763C17.9422 18.1823 17.847 18.0042 17.7071 17.8643C17.5673 17.7245 17.3891 17.6292 17.1951 17.5906C17.0011 17.552 16.8 17.5718 16.6173 17.6475C16.4346 17.7232 16.2784 17.8514 16.1685 18.0158C16.0586 18.1803 16 18.3736 16 18.5714C16 18.8366 16.1054 19.091 16.2929 19.2785C16.4804 19.4661 16.7348 19.5714 17 19.5714ZM17 15.5714C17.1978 15.5714 17.3911 15.5128 17.5556 15.4029C17.72 15.293 17.8482 15.1368 17.9239 14.9541C17.9996 14.7714 18.0194 14.5703 17.9808 14.3763C17.9422 14.1823 17.847 14.0042 17.7071 13.8643C17.5673 13.7245 17.3891 13.6292 17.1951 13.5906C17.0011 13.552 16.8 13.5718 16.6173 13.6475C16.4346 13.7232 16.2784 13.8514 16.1685 14.0158C16.0586 14.1803 16 14.3736 16 14.5714C16 14.8366 16.1054 15.091 16.2929 15.2785C16.4804 15.4661 16.7348 15.5714 17 15.5714ZM12 15.5714C12.1978 15.5714 12.3911 15.5128 12.5556 15.4029C12.72 15.293 12.8482 15.1368 12.9239 14.9541C12.9996 14.7714 13.0194 14.5703 12.9808 14.3763C12.9422 14.1823 12.847 14.0042 12.7071 13.8643C12.5673 13.7245 12.3891 13.6292 12.1951 13.5906C12.0011 13.552 11.8 13.5718 11.6173 13.6475C11.4346 13.7232 11.2784 13.8514 11.1685 14.0158C11.0586 14.1803 11 14.3736 11 14.5714C11 14.8366 11.1054 15.091 11.2929 15.2785C11.4804 15.4661 11.7348 15.5714 12 15.5714ZM19 3.57141H18V2.57141C18 2.30619 17.8946 2.05184 17.7071 1.8643C17.5196 1.67677 17.2652 1.57141 17 1.57141C16.7348 1.57141 16.4804 1.67677 16.2929 1.8643C16.1054 2.05184 16 2.30619 16 2.57141V3.57141H8V2.57141C8 2.30619 7.89464 2.05184 7.70711 1.8643C7.51957 1.67677 7.26522 1.57141 7 1.57141C6.73478 1.57141 6.48043 1.67677 6.29289 1.8643C6.10536 2.05184 6 2.30619 6 2.57141V3.57141H5C4.20435 3.57141 3.44129 3.88748 2.87868 4.45009C2.31607 5.0127 2 5.77576 2 6.57141V20.5714C2 21.3671 2.31607 22.1301 2.87868 22.6927C3.44129 23.2553 4.20435 23.5714 5 23.5714H19C19.7956 23.5714 20.5587 23.2553 21.1213 22.6927C21.6839 22.1301 22 21.3671 22 20.5714V6.57141C22 5.77576 21.6839 5.0127 21.1213 4.45009C20.5587 3.88748 19.7956 3.57141 19 3.57141ZM20 20.5714C20 20.8366 19.8946 21.091 19.7071 21.2785C19.5196 21.4661 19.2652 21.5714 19 21.5714H5C4.73478 21.5714 4.48043 21.4661 4.29289 21.2785C4.10536 21.091 4 20.8366 4 20.5714V11.5714H20V20.5714ZM20 9.57141H4V6.57141C4 6.30619 4.10536 6.05184 4.29289 5.8643C4.48043 5.67677 4.73478 5.57141 5 5.57141H6V6.57141C6 6.83663 6.10536 7.09098 6.29289 7.27852C6.48043 7.46605 6.73478 7.57141 7 7.57141C7.26522 7.57141 7.51957 7.46605 7.70711 7.27852C7.89464 7.09098 8 6.83663 8 6.57141V5.57141H16V6.57141C16 6.83663 16.1054 7.09098 16.2929 7.27852C16.4804 7.46605 16.7348 7.57141 17 7.57141C17.2652 7.57141 17.5196 7.46605 17.7071 7.27852C17.8946 7.09098 18 6.83663 18 6.57141V5.57141H19C19.2652 5.57141 19.5196 5.67677 19.7071 5.8643C19.8946 6.05184 20 6.30619 20 6.57141V9.57141ZM7 15.5714C7.19778 15.5714 7.39112 15.5128 7.55557 15.4029C7.72002 15.293 7.84819 15.1368 7.92388 14.9541C7.99957 14.7714 8.01937 14.5703 7.98079 14.3763C7.9422 14.1823 7.84696 14.0042 7.70711 13.8643C7.56725 13.7245 7.38907 13.6292 7.19509 13.5906C7.00111 13.552 6.80004 13.5718 6.61732 13.6475C6.43459 13.7232 6.27841 13.8514 6.16853 14.0158C6.05865 14.1803 6 14.3736 6 14.5714C6 14.8366 6.10536 15.091 6.29289 15.2785C6.48043 15.4661 6.73478 15.5714 7 15.5714ZM7 19.5714C7.19778 19.5714 7.39112 19.5128 7.55557 19.4029C7.72002 19.293 7.84819 19.1368 7.92388 18.9541C7.99957 18.7714 8.01937 18.5703 7.98079 18.3763C7.9422 18.1823 7.84696 18.0042 7.70711 17.8643C7.56725 17.7245 7.38907 17.6292 7.19509 17.5906C7.00111 17.552 6.80004 17.5718 6.61732 17.6475C6.43459 17.7232 6.27841 17.8514 6.16853 18.0158C6.05865 18.1803 6 18.3736 6 18.5714C6 18.8366 6.10536 19.091 6.29289 19.2785C6.48043 19.4661 6.73478 19.5714 7 19.5714Z" fill="#1D2846" fill-opacity="0.5"/>
</svg>
