<svg width="30" height="30" viewBox="0 0 30 30" fill="none" xmlns="http://www.w3.org/2000/svg">
<path d="M18.4864 11.7857C19.1258 11.7857 19.7389 12.0397 20.191 12.4918C20.6431 12.9439 20.8971 13.5571 20.8971 14.1964V20.8918C20.8971 22.455 20.2761 23.9541 19.1708 25.0594C18.0655 26.1648 16.5663 26.7857 15.0032 26.7857C13.44 26.7857 11.9409 26.1648 10.8355 25.0594C9.73022 23.9541 9.10925 22.455 9.10925 20.8918V14.1964C9.10925 13.5571 9.36324 12.9439 9.81533 12.4918C10.2674 12.0397 10.8806 11.7857 11.52 11.7857H18.4864ZM18.4864 13.3929H11.52C11.3068 13.3929 11.1025 13.4775 10.9518 13.6282C10.8011 13.7789 10.7164 13.9833 10.7164 14.1964V20.8918C10.7164 22.0287 11.168 23.1191 11.972 23.923C12.7759 24.7269 13.8663 25.1786 15.0032 25.1786C16.1401 25.1786 17.2305 24.7269 18.0344 23.923C18.8383 23.1191 19.29 22.0287 19.29 20.8918V14.1964C19.29 13.9833 19.2053 13.7789 19.0546 13.6282C18.9039 13.4775 18.6995 13.3929 18.4864 13.3929ZM4.55354 11.7857H9.0064C8.57611 12.2335 8.27382 12.7885 8.13104 13.3929H4.55354C4.34042 13.3929 4.13603 13.4775 3.98533 13.6282C3.83463 13.7789 3.74997 13.9833 3.74997 14.1964V19.8204C3.74954 20.3581 3.88402 20.8873 4.14107 21.3595C4.39813 21.8318 4.76955 22.232 5.22134 22.5236C5.67312 22.8152 6.19083 22.9887 6.72706 23.0284C7.26329 23.0681 7.8009 22.9726 8.29068 22.7507C8.43318 23.2757 8.63782 23.775 8.89497 24.2422C8.16091 24.5629 7.3585 24.6958 6.56023 24.6286C5.76196 24.5615 4.993 24.2965 4.32283 23.8577C3.65266 23.4188 3.10241 22.8199 2.72179 22.115C2.34117 21.4101 2.14219 20.6215 2.14282 19.8204V14.1964C2.14282 13.5571 2.39681 12.9439 2.84891 12.4918C3.301 12.0397 3.91418 11.7857 4.55354 11.7857ZM25.4464 11.7857C26.0858 11.7857 26.6989 12.0397 27.151 12.4918C27.6031 12.9439 27.8571 13.5571 27.8571 14.1964V19.8214C27.8574 20.622 27.6584 21.41 27.278 22.1144C26.8976 22.8188 26.3479 23.4173 25.6783 23.8561C25.0087 24.2949 24.2404 24.56 23.4427 24.6276C22.6451 24.6952 21.8431 24.5631 21.1093 24.2432L21.1693 24.1339C21.3985 23.6989 21.5839 23.2372 21.7168 22.7529C22.2063 22.9731 22.7432 23.0673 23.2785 23.0268C23.8137 22.9862 24.3303 22.8123 24.7811 22.5208C25.2318 22.2293 25.6024 21.8295 25.859 21.358C26.1156 20.8865 26.25 20.3582 26.25 19.8214V14.1964C26.25 13.9835 26.1655 13.7793 26.015 13.6286C25.8645 13.4779 25.6604 13.3932 25.4475 13.3929H21.8764C21.7333 12.7884 21.4306 12.2334 21 11.7857H25.4464ZM15 3.21429C15.4924 3.21429 15.9801 3.31129 16.435 3.49975C16.89 3.6882 17.3034 3.96442 17.6516 4.31264C17.9998 4.66086 18.2761 5.07426 18.4645 5.52923C18.653 5.9842 18.75 6.47184 18.75 6.96429C18.75 7.45675 18.653 7.94439 18.4645 8.39936C18.2761 8.85433 17.9998 9.26773 17.6516 9.61595C17.3034 9.96416 16.89 10.2404 16.435 10.4288C15.9801 10.6173 15.4924 10.7143 15 10.7143C14.0054 10.7143 13.0516 10.3192 12.3483 9.61595C11.6451 8.91268 11.25 7.95886 11.25 6.96429C11.25 5.96973 11.6451 5.01591 12.3483 4.31264C13.0516 3.60938 14.0054 3.21429 15 3.21429ZM23.5746 4.28572C23.9967 4.28572 24.4147 4.36886 24.8047 4.5304C25.1946 4.69193 25.549 4.92869 25.8475 5.22717C26.1459 5.52564 26.3827 5.87998 26.5442 6.26996C26.7058 6.65993 26.7889 7.0779 26.7889 7.50001C26.7889 7.92212 26.7058 8.34009 26.5442 8.73006C26.3827 9.12004 26.1459 9.47438 25.8475 9.77285C25.549 10.0713 25.1946 10.3081 24.8047 10.4696C24.4147 10.6312 23.9967 10.7143 23.5746 10.7143C22.7221 10.7143 21.9046 10.3756 21.3018 9.77285C20.699 9.17006 20.3603 8.35249 20.3603 7.50001C20.3603 6.64753 20.699 5.82996 21.3018 5.22717C21.9046 4.62437 22.7221 4.28572 23.5746 4.28572ZM6.42532 4.28572C6.84743 4.28572 7.2654 4.36886 7.65538 4.5304C8.04535 4.69193 8.39969 4.92869 8.69817 5.22717C8.99664 5.52564 9.2334 5.87998 9.39494 6.26996C9.55647 6.65993 9.63961 7.0779 9.63961 7.50001C9.63961 7.92212 9.55647 8.34009 9.39494 8.73006C9.2334 9.12004 8.99664 9.47438 8.69817 9.77285C8.39969 10.0713 8.04535 10.3081 7.65538 10.4696C7.2654 10.6312 6.84743 10.7143 6.42532 10.7143C5.57284 10.7143 4.75528 10.3756 4.15248 9.77285C3.54969 9.17006 3.21104 8.35249 3.21104 7.50001C3.21104 6.64753 3.54969 5.82996 4.15248 5.22717C4.75528 4.62437 5.57284 4.28572 6.42532 4.28572ZM15 4.82144C14.4316 4.82144 13.8866 5.0472 13.4847 5.44907C13.0829 5.85093 12.8571 6.39597 12.8571 6.96429C12.8571 7.53262 13.0829 8.07766 13.4847 8.47952C13.8866 8.88139 14.4316 9.10715 15 9.10715C15.5683 9.10715 16.1133 8.88139 16.5152 8.47952C16.9171 8.07766 17.1428 7.53262 17.1428 6.96429C17.1428 6.39597 16.9171 5.85093 16.5152 5.44907C16.1133 5.0472 15.5683 4.82144 15 4.82144ZM23.5746 5.89287C23.3636 5.89287 23.1546 5.93444 22.9596 6.0152C22.7646 6.09597 22.5874 6.21435 22.4382 6.36359C22.2889 6.51282 22.1706 6.68999 22.0898 6.88498C22.009 7.07997 21.9675 7.28896 21.9675 7.50001C21.9675 7.71106 22.009 7.92005 22.0898 8.11504C22.1706 8.31002 22.2889 8.48719 22.4382 8.63643C22.5874 8.78567 22.7646 8.90405 22.9596 8.98482C23.1546 9.06558 23.3636 9.10715 23.5746 9.10715C24.0009 9.10715 24.4096 8.93783 24.711 8.63643C25.0124 8.33503 25.1818 7.92625 25.1818 7.50001C25.1818 7.07377 25.0124 6.66498 24.711 6.36359C24.4096 6.06219 24.0009 5.89287 23.5746 5.89287ZM6.42532 5.89287C6.21427 5.89287 6.00528 5.93444 5.8103 6.0152C5.61531 6.09597 5.43814 6.21435 5.2889 6.36359C5.13967 6.51282 5.02128 6.68999 4.94052 6.88498C4.85975 7.07997 4.81818 7.28896 4.81818 7.50001C4.81818 7.71106 4.85975 7.92005 4.94052 8.11504C5.02128 8.31002 5.13967 8.48719 5.2889 8.63643C5.43814 8.78567 5.61531 8.90405 5.8103 8.98482C6.00528 9.06558 6.21427 9.10715 6.42532 9.10715C6.85156 9.10715 7.26035 8.93783 7.56175 8.63643C7.86314 8.33503 8.03247 7.92625 8.03247 7.50001C8.03247 7.07377 7.86314 6.66498 7.56175 6.36359C7.26035 6.06219 6.85156 5.89287 6.42532 5.89287Z" fill="#2F9AE4"/>
</svg>
