<svg width="27" height="24" viewBox="0 0 27 24" fill="none" xmlns="http://www.w3.org/2000/svg">
<path d="M15.6089 13.0674L13.2612 11.7109V7C13.2612 6.72388 13.0374 6.5 12.7612 6.5C12.4851 6.5 12.2612 6.72388 12.2612 7V12C12.2613 12.1785 12.3566 12.3434 12.5112 12.4326L15.1089 13.9326C15.1848 13.9768 15.2711 14.0001 15.3589 14C15.5372 13.9999 15.702 13.9048 15.7913 13.7504C15.9295 13.5115 15.8479 13.2056 15.6089 13.0674ZM12.7612 2C7.2384 2 2.76123 6.47717 2.76123 12C2.76123 17.5228 7.2384 22 12.7612 22C18.2814 21.9935 22.7548 17.5201 22.7612 12C22.7612 6.47717 18.2841 2 12.7612 2ZM12.7612 21C7.79065 21 3.76123 16.9706 3.76123 12C3.76123 7.02942 7.79065 3 12.7612 3C17.7296 3.00543 21.7558 7.03168 21.7612 12C21.7612 16.9706 17.7318 21 12.7612 21Z" fill="#1D2846"/>
<circle cx="20.9323" cy="17.3063" r="5.30634" fill="#F9FCFF"/>
<rect x="24.8511" y="16.9186" width="0.775513" height="7.83746" rx="0.387756" transform="rotate(90 24.8511 16.9186)" fill="#E44646"/>
</svg>
