<svg width="26" height="24" viewBox="0 0 26 24" fill="none" xmlns="http://www.w3.org/2000/svg">
<path d="M15.1089 13.0674L12.7612 11.7109V7C12.7612 6.72388 12.5374 6.5 12.2612 6.5C11.9851 6.5 11.7612 6.72388 11.7612 7V12C11.7613 12.1785 11.8566 12.3434 12.0112 12.4326L14.6089 13.9326C14.6848 13.9768 14.7711 14.0001 14.8589 14C15.0372 13.9999 15.202 13.9048 15.2913 13.7504C15.4295 13.5115 15.3479 13.2056 15.1089 13.0674ZM12.2612 2C6.7384 2 2.26123 6.47717 2.26123 12C2.26123 17.5228 6.7384 22 12.2612 22C17.7814 21.9935 22.2548 17.5201 22.2612 12C22.2612 6.47717 17.7841 2 12.2612 2ZM12.2612 21C7.29065 21 3.26123 16.9706 3.26123 12C3.26123 7.02942 7.29065 3 12.2612 3C17.2296 3.00543 21.2558 7.03168 21.2612 12C21.2612 16.9706 17.2318 21 12.2612 21Z" fill="#1D2846"/>
<circle cx="20.4323" cy="17.3063" r="5.30634" fill="white"/>
<rect x="20.0447" y="14.5428" width="0.775513" height="5.52704" rx="0.387756" fill="#2F9AE4"/>
<rect x="23.196" y="16.9186" width="0.775513" height="5.52704" rx="0.387756" transform="rotate(90 23.196 16.9186)" fill="#2F9AE4"/>
</svg>
