<svg width="15" height="15" viewBox="0 0 15 15" fill="none" xmlns="http://www.w3.org/2000/svg">
<path d="M2.25 5.75V9.25C2.25 10.8997 2.25 11.7251 2.76275 12.2372C3.27492 12.75 4.10033 12.75 5.75 12.75H9.25C10.8997 12.75 11.7251 12.75 12.2372 12.2372C12.75 11.7251 12.75 10.8997 12.75 9.25V5.75C12.75 4.10033 12.75 3.27492 12.2372 2.76275C11.7251 2.25 10.8997 2.25 9.25 2.25H5.75" stroke="#1D2846" stroke-linecap="round"/>
<path d="M9.24991 9.25003V9.83337H9.83325V9.25003H9.24991ZM4.99566 4.17095C4.88564 4.06469 4.73829 4.0059 4.58534 4.00722C4.4324 4.00855 4.28609 4.0699 4.17793 4.17806C4.06978 4.28621 4.00843 4.43252 4.0071 4.58547C4.00577 4.73841 4.06457 4.88577 4.17083 4.99578L4.99566 4.17095ZM8.66658 5.1667V9.25003H9.83325V5.1667H8.66658ZM9.24991 8.6667H5.16658V9.83337H9.24991V8.6667ZM9.66233 8.83762L4.99566 4.17095L4.17083 4.99578L8.8375 9.66245L9.66233 8.83762Z" fill="#1D2846"/>
</svg>
