<svg width="15" height="15" viewBox="0 0 15 15" fill="none" xmlns="http://www.w3.org/2000/svg">
<path d="M2.24996 2.25002V1.66669H1.66663V2.25002H2.24996ZM7.67088 8.49577C7.78089 8.60203 7.92824 8.66083 8.08119 8.6595C8.23414 8.65817 8.38045 8.59682 8.4886 8.48866C8.59676 8.38051 8.65811 8.2342 8.65944 8.08125C8.66076 7.92831 8.60197 7.78095 8.49571 7.67094L7.67088 8.49577ZM2.83329 6.91669V2.25002H1.66663V6.91669H2.83329ZM2.24996 2.83335H6.91663V1.66669H2.24996V2.83335ZM1.83754 2.66244L7.67088 8.49577L8.49571 7.67094L2.66238 1.8376L1.83754 2.66244Z" fill="#1D2846"/>
<path d="M2.83325 9.25004C2.83325 10.3409 2.83325 10.8857 3.06775 11.2917C3.22134 11.5577 3.44224 11.7786 3.70825 11.9322C4.11425 12.1667 4.65909 12.1667 5.74992 12.1667H8.66659C10.3163 12.1667 11.1417 12.1667 11.6538 11.654C12.1666 11.1418 12.1666 10.3164 12.1666 8.66671V5.75004C12.1666 4.65921 12.1666 4.11437 11.9321 3.70837C11.7785 3.44236 11.5576 3.22146 11.2916 3.06787C10.8856 2.83337 10.3408 2.83337 9.24992 2.83337" stroke="#1D2846" stroke-linecap="round"/>
</svg>
