<svg width="25" height="25" viewBox="0 0 25 25" fill="none" xmlns="http://www.w3.org/2000/svg">
<path d="M8.8335 6.85486C8.8335 6.72225 8.88617 6.59507 8.97994 6.50131C9.07371 6.40754 9.20089 6.35486 9.3335 6.35486H15.3335C15.4661 6.35486 15.5933 6.40754 15.687 6.50131C15.7808 6.59507 15.8335 6.72225 15.8335 6.85486C15.8335 6.98747 15.7808 7.11464 15.687 7.20841C15.5933 7.30218 15.4661 7.35486 15.3335 7.35486H9.3335C9.20089 7.35486 9.07371 7.30218 8.97994 7.20841C8.88617 7.11464 8.8335 6.98747 8.8335 6.85486ZM8.3335 12.3549C8.06828 12.3549 7.81393 12.4602 7.62639 12.6478C7.43885 12.8353 7.3335 13.0896 7.3335 13.3549C7.3335 13.6201 7.43885 13.8744 7.62639 14.062C7.81393 14.2495 8.06828 14.3549 8.3335 14.3549C8.59871 14.3549 8.85307 14.2495 9.0406 14.062C9.22814 13.8744 9.3335 13.6201 9.3335 13.3549C9.3335 13.0896 9.22814 12.8353 9.0406 12.6478C8.85307 12.4602 8.59871 12.3549 8.3335 12.3549ZM16.3335 12.3549C16.0683 12.3549 15.8139 12.4602 15.6264 12.6478C15.4389 12.8353 15.3335 13.0896 15.3335 13.3549C15.3335 13.6201 15.4389 13.8744 15.6264 14.062C15.8139 14.2495 16.0683 14.3549 16.3335 14.3549C16.5987 14.3549 16.8531 14.2495 17.0406 14.062C17.2281 13.8744 17.3335 13.6201 17.3335 13.3549C17.3335 13.0896 17.2281 12.8353 17.0406 12.6478C16.8531 12.4602 16.5987 12.3549 16.3335 12.3549ZM11.3335 13.3549C11.3335 13.0896 11.4389 12.8353 11.6264 12.6478C11.8139 12.4602 12.0683 12.3549 12.3335 12.3549C12.5987 12.3549 12.8531 12.4602 13.0406 12.6478C13.2281 12.8353 13.3335 13.0896 13.3335 13.3549C13.3335 13.6201 13.2281 13.8744 13.0406 14.062C12.8531 14.2495 12.5987 14.3549 12.3335 14.3549C12.0683 14.3549 11.8139 14.2495 11.6264 14.062C11.4389 13.8744 11.3335 13.6201 11.3335 13.3549ZM8.3335 16.3549C8.06828 16.3549 7.81393 16.4602 7.62639 16.6478C7.43885 16.8353 7.3335 17.0896 7.3335 17.3549C7.3335 17.6201 7.43885 17.8744 7.62639 18.062C7.81393 18.2495 8.06828 18.3549 8.3335 18.3549C8.59871 18.3549 8.85307 18.2495 9.0406 18.062C9.22814 17.8744 9.3335 17.6201 9.3335 17.3549C9.3335 17.0896 9.22814 16.8353 9.0406 16.6478C8.85307 16.4602 8.59871 16.3549 8.3335 16.3549ZM11.3335 17.3549C11.3335 17.0896 11.4389 16.8353 11.6264 16.6478C11.8139 16.4602 12.0683 16.3549 12.3335 16.3549C12.5987 16.3549 12.8531 16.4602 13.0406 16.6478C13.2281 16.8353 13.3335 17.0896 13.3335 17.3549C13.3335 17.6201 13.2281 17.8744 13.0406 18.062C12.8531 18.2495 12.5987 18.3549 12.3335 18.3549C12.0683 18.3549 11.8139 18.2495 11.6264 18.062C11.4389 17.8744 11.3335 17.6201 11.3335 17.3549Z" fill="#2F9AE4"/>
<path d="M13.9565 3.35486H10.7105C9.6105 3.35486 8.7525 3.35486 8.0655 3.41086C7.3675 3.46786 6.8005 3.58586 6.2905 3.84486C5.44354 4.27633 4.75497 4.9649 4.3235 5.81186C4.0635 6.32186 3.9465 6.88886 3.8895 7.58686C3.8335 8.27486 3.8335 9.13086 3.8335 10.2319V14.4779C3.8335 15.5779 3.8335 16.4359 3.8895 17.1229C3.9465 17.8209 4.0645 18.3879 4.3235 18.8979C4.75497 19.7448 5.44354 20.4334 6.2905 20.8649C6.8005 21.1249 7.3675 21.2419 8.0655 21.2989C8.7535 21.3549 9.6095 21.3549 10.7105 21.3549H13.9565C15.0565 21.3549 15.9145 21.3549 16.6015 21.2989C17.2995 21.2419 17.8665 21.1239 18.3765 20.8649C19.2234 20.4334 19.912 19.7448 20.3435 18.8979C20.6035 18.3879 20.7205 17.8209 20.7775 17.1229C20.8335 16.4359 20.8335 15.5789 20.8335 14.4779V10.2319C20.8335 9.13186 20.8335 8.27386 20.7775 7.58686C20.7205 6.88886 20.6025 6.32186 20.3435 5.81186C19.912 4.9649 19.2234 4.27633 18.3765 3.84486C17.8665 3.58486 17.2995 3.46786 16.6015 3.41086C15.9135 3.35486 15.0575 3.35486 13.9565 3.35486ZM6.7435 4.73586C7.0895 4.55986 7.5095 4.45986 8.1465 4.40786C8.7885 4.35486 9.6055 4.35486 10.7335 4.35486H13.9335C15.0615 4.35486 15.8785 4.35486 16.5195 4.40786C17.1565 4.45986 17.5765 4.55986 17.9225 4.73586C18.5813 5.07146 19.1169 5.60706 19.4525 6.26586C19.6285 6.61186 19.7285 7.03186 19.7805 7.66886C19.8185 8.12586 19.8295 8.67086 19.8325 9.35486H4.8335C4.8375 8.67086 4.8475 8.12486 4.8855 7.66886C4.9375 7.03186 5.0375 6.61186 5.2135 6.26586C5.54909 5.60706 6.0847 5.07146 6.7435 4.73586ZM4.8335 10.3549H19.8335V14.4549C19.8335 15.5829 19.8335 16.3999 19.7805 17.0409C19.7285 17.6779 19.6285 18.0979 19.4525 18.4439C19.1169 19.1027 18.5813 19.6383 17.9225 19.9739C17.5765 20.1499 17.1565 20.2499 16.5205 20.3019C15.8785 20.3549 15.0615 20.3549 13.9335 20.3549H10.7335C9.6055 20.3549 8.7885 20.3549 8.1475 20.3019C7.5105 20.2499 7.0905 20.1499 6.7445 19.9739C6.0857 19.6383 5.55009 19.1027 5.2145 18.4439C5.0385 18.0979 4.9385 17.6779 4.8865 17.0419C4.8335 16.3999 4.8335 15.5829 4.8335 14.4549V10.3549Z" fill="#2F9AE4"/>
</svg>
