<svg width="54" height="54" viewBox="0 0 54 54" fill="none" xmlns="http://www.w3.org/2000/svg">
<circle cx="27" cy="27" r="27.0043" fill="#E44646" fill-opacity="0.1"/>
<circle cx="27" cy="27.0001" r="21.6797" fill="#E44646"/>
<path d="M23.4 32L27 28.4L30.6 32L32 30.6L28.4 27L32 23.4L30.6 22L27 25.6L23.4 22L22 23.4L25.6 27L22 30.6L23.4 32ZM27 37C25.6167 37 24.3167 36.7375 23.1 36.2125C21.8833 35.6875 20.825 34.975 19.925 34.075C19.025 33.175 18.3125 32.1167 17.7875 30.9C17.2625 29.6833 17 28.3833 17 27C17 25.6167 17.2625 24.3167 17.7875 23.1C18.3125 21.8833 19.025 20.825 19.925 19.925C20.825 19.025 21.8833 18.3125 23.1 17.7875C24.3167 17.2625 25.6167 17 27 17C28.3833 17 29.6833 17.2625 30.9 17.7875C32.1167 18.3125 33.175 19.025 34.075 19.925C34.975 20.825 35.6875 21.8833 36.2125 23.1C36.7375 24.3167 37 25.6167 37 27C37 28.3833 36.7375 29.6833 36.2125 30.9C35.6875 32.1167 34.975 33.175 34.075 34.075C33.175 34.975 32.1167 35.6875 30.9 36.2125C29.6833 36.7375 28.3833 37 27 37ZM27 35C29.2333 35 31.125 34.225 32.675 32.675C34.225 31.125 35 29.2333 35 27C35 24.7667 34.225 22.875 32.675 21.325C31.125 19.775 29.2333 19 27 19C24.7667 19 22.875 19.775 21.325 21.325C19.775 22.875 19 24.7667 19 27C19 29.2333 19.775 31.125 21.325 32.675C22.875 34.225 24.7667 35 27 35Z" fill="white"/>
</svg>
