<svg width="24" height="24" viewBox="0 0 24 24" fill="none" xmlns="http://www.w3.org/2000/svg">
<path fill-rule="evenodd" clip-rule="evenodd" d="M12.5 11.7109L14.8477 13.0674C15.0867 13.2056 15.1683 13.5115 15.03 13.7504C14.9407 13.9048 14.776 13.9999 14.5977 14C14.5098 14.0001 14.4236 13.9768 14.3477 13.9326L11.75 12.4326C11.5953 12.3434 11.5001 12.1785 11.5 12V7C11.5 6.72388 11.7239 6.5 12 6.5C12.2761 6.5 12.5 6.72388 12.5 7V11.7109ZM2 12C2 6.47717 6.47717 2 12 2C17.5228 2 22 6.47717 22 12C21.9999 12.0784 21.9989 12.1565 21.997 12.2345C21.6766 12.1357 21.3431 12.0665 21 12.03C21 12.02 21 12.01 21 12C20.9946 7.03168 16.9683 3.00543 12 3C7.02942 3 3 7.02942 3 12C3 16.9706 7.02942 21 12 21C13.4059 21 14.7364 20.6777 15.9218 20.1029C16.1011 20.3914 16.3073 20.6614 16.5368 20.9095C15.1753 21.605 13.6335 21.9981 12 22C6.47717 22 2 17.5228 2 12Z" fill="#1D2846"/>
<rect x="22.2504" y="14.1529" width="0.930057" height="7.05814" rx="0.465029" transform="rotate(35.1433 22.2504 14.1529)" fill="#4ACC4E"/>
<rect x="19.4724" y="19.8963" width="0.930057" height="2.38138" rx="0.465029" transform="rotate(144.461 19.4724 19.8963)" fill="#4ACC4E"/>
</svg>
