<svg version="1.1" id="Layer_1" xmlns="http://www.w3.org/2000/svg" xmlns:xlink="http://www.w3.org/1999/xlink" x="0px" y="0px"
	 width="100%" viewBox="0 0 4676 4675" enable-background="new 0 0 4676 4675" xml:space="preserve">
<path fill="#FFFFFF" opacity="1.000000" stroke="none" 
	d="
M3100.000000,4680.000000 
	C2066.666748,4680.000000 1035.333374,4680.000000 4.000000,4680.000000 
	C4.000000,3121.333252 4.000000,1562.666626 4.000000,4.000001 
	C1562.666626,4.000000 3121.333252,4.000000 4680.000000,4.000000 
	C4680.000000,1562.666626 4680.000000,3121.333252 4680.000000,4680.000000 
	C4154.000000,4680.000000 3628.000000,4680.000000 3100.000000,4680.000000 
M3568.061279,1445.305298 
	C3568.379395,1439.442505 3565.242920,1435.324219 3561.366211,1431.409058 
	C3533.917969,1403.688477 3500.799805,1388.205688 3461.744873,1388.172852 
	C3164.632080,1387.922729 2867.519531,1388.034424 2570.406738,1388.034302 
	C2124.737549,1388.034180 1679.068359,1388.073975 1233.399292,1387.869507 
	C1217.911377,1387.862305 1202.932129,1390.236694 1188.283691,1394.161377 
	C1158.983521,1402.011841 1135.993774,1419.672852 1118.688721,1444.178101 
	C1111.851196,1453.860596 1107.513184,1465.323486 1102.222534,1476.067017 
	C1101.443115,1477.649780 1101.695190,1479.740601 1101.438599,1481.854736 
	C1103.628052,1482.711914 1105.402344,1483.406738 1107.004150,1487.181396 
	C1100.400879,1504.275757 1099.473389,1522.074585 1099.477295,1540.199463 
	C1099.592285,2078.386963 1099.569214,2616.574463 1099.570190,3154.761963 
	C1099.570190,3160.090576 1099.461914,3165.423828 1099.645386,3170.746826 
	C1100.791016,3203.978271 1112.218506,3233.083252 1135.720825,3256.789062 
	C1154.375000,3275.604980 1176.066528,3289.315186 1205.008545,3293.989502 
	C1207.318970,3294.145508 1209.629517,3294.301270 1215.602539,3295.339111 
	C1222.255859,3295.491943 1228.909302,3295.777588 1235.562622,3295.778076 
	C1599.775269,3295.799805 1963.988037,3295.802246 2328.200684,3295.759766 
	C2334.831787,3295.759033 2341.462891,3295.189209 2351.761719,3295.644775 
	C2360.414307,3295.695068 2369.066895,3295.789307 2377.719482,3295.789307 
	C2735.830322,3295.796875 3093.941406,3295.791748 3452.052246,3295.823242 
	C3460.024902,3295.823975 3467.997803,3296.232422 3476.754150,3297.690918 
	C3477.846924,3297.209473 3478.939453,3296.727783 3481.907227,3295.396729 
	C3482.553223,3295.165283 3483.199219,3294.933838 3486.387207,3295.390869 
	C3489.636719,3294.302734 3492.886475,3293.214600 3498.765381,3292.043945 
	C3500.444580,3291.567139 3502.123535,3291.090332 3505.975586,3291.010010 
	C3507.856934,3289.937012 3509.738281,3288.864014 3514.395996,3287.020264 
	C3518.355225,3284.815430 3522.186523,3282.331543 3526.293457,3280.448975 
	C3565.771484,3262.353271 3586.032227,3229.706055 3594.677246,3188.855469 
	C3596.852539,3178.577881 3596.269775,3167.630859 3596.271240,3156.991455 
	C3596.337646,2618.541016 3596.329590,2080.090576 3596.328613,1541.640137 
	C3596.328613,1537.641724 3596.404785,1533.640503 3596.283447,1529.645508 
	C3595.498047,1503.812378 3589.625977,1479.660278 3573.306885,1458.809448 
	C3570.916748,1455.755371 3569.671143,1451.805542 3568.061279,1445.305298 
z"/>
<path fill="#4E4F51" opacity="1.000000" stroke="none" 
	d="
M2348.093994,3294.884766 
	C2341.462891,3295.189209 2334.831787,3295.759033 2328.200684,3295.759766 
	C1963.988037,3295.802246 1599.775269,3295.799805 1235.562622,3295.778076 
	C1228.909302,3295.777588 1222.255859,3295.491943 1212.903809,3294.066406 
	C1207.861450,3292.680420 1205.517944,3292.566650 1203.174316,3292.453125 
	C1176.066528,3289.315186 1154.375000,3275.604980 1135.720825,3256.789062 
	C1112.218506,3233.083252 1100.791016,3203.978271 1099.645386,3170.746826 
	C1099.461914,3165.423828 1099.570190,3160.090576 1099.570190,3154.761963 
	C1099.569214,2616.574463 1099.592285,2078.386963 1099.477295,1540.199463 
	C1099.473389,1522.074585 1100.400879,1504.275757 1108.005859,1484.555176 
	C1122.971924,1451.142578 1144.999878,1428.267090 1176.559204,1414.071655 
	C1178.579956,1413.901855 1179.405762,1413.174438 1180.880981,1411.824951 
	C1182.525146,1411.348022 1183.160400,1411.084839 1184.890991,1410.977051 
	C1186.681396,1410.882446 1187.376465,1410.632446 1188.784668,1410.400391 
	C1190.536987,1410.179443 1191.164429,1409.537964 1192.820557,1408.133789 
	C1196.198730,1407.369751 1198.136597,1406.965820 1201.051758,1406.958618 
	C1203.823364,1406.499634 1205.617798,1405.643799 1209.306641,1404.506836 
	C1221.183716,1403.961060 1231.166382,1403.465942 1241.149170,1403.464844 
	C1603.473145,1403.424683 1965.797119,1403.425781 2328.121094,1403.467163 
	C2334.756348,1403.467896 2341.391357,1404.023315 2348.024902,1406.168945 
	C2348.091553,1429.116943 2348.160156,1450.216064 2347.134033,1471.694092 
	C2345.343506,1472.406982 2344.647217,1472.740967 2342.095215,1472.832520 
	C2337.577637,1472.549805 2334.916016,1472.474243 2332.254395,1472.474243 
	C1999.494263,1472.468262 1666.734131,1472.463989 1333.973999,1472.497192 
	C1327.999146,1472.497803 1322.024170,1472.950317 1315.114746,1472.853027 
	C1314.180298,1472.514038 1312.209229,1472.779175 1310.863647,1472.526123 
	C1306.156616,1473.341187 1302.795044,1474.409424 1298.217773,1475.553467 
	C1295.416748,1475.972168 1293.831543,1476.315063 1291.193848,1476.422119 
	C1289.429810,1476.287109 1288.717896,1476.387939 1287.114258,1476.552002 
	C1284.993286,1477.024658 1284.181763,1477.846924 1282.831787,1479.410522 
	C1281.218506,1479.889771 1280.561401,1480.040405 1279.033813,1480.113770 
	C1276.903442,1480.256470 1276.020020,1480.953857 1274.231445,1482.772217 
	C1234.667114,1501.897217 1212.260254,1532.338257 1205.604004,1574.126465 
	C1204.044678,1583.915649 1204.364258,1594.055664 1204.363159,1604.034180 
	C1204.309937,2083.298096 1204.312988,2562.562012 1204.349731,3041.825928 
	C1204.350342,3049.138428 1204.852417,3056.450928 1204.809570,3064.668945 
	C1204.498657,3065.574219 1204.766846,3067.469727 1204.565186,3069.312012 
	C1203.143311,3091.263428 1205.242310,3110.844482 1211.906250,3130.049072 
	C1227.781616,3175.800049 1277.149902,3206.239014 1315.527222,3204.607910 
	C1324.166870,3204.240479 1332.836670,3204.602539 1341.492676,3204.602539 
	C1668.423828,3204.605225 1995.354980,3204.594482 2322.286133,3204.661377 
	C2330.897705,3204.663330 2339.509033,3205.510010 2348.093750,3207.713867 
	C2348.075684,3237.938477 2348.084717,3266.411621 2348.093994,3294.884766 
z"/>
<path fill="#404042" opacity="1.000000" stroke="none" 
	d="
M2348.228516,1471.315186 
	C2348.160156,1450.216064 2348.091553,1429.116943 2349.867676,1405.803467 
	C2353.708740,1403.538940 2355.705322,1403.445190 2357.701660,1403.445190 
	C2725.854492,1403.436646 3094.007324,1403.424316 3462.160156,1403.496704 
	C3470.781982,1403.498413 3479.404053,1404.454224 3488.862061,1405.869629 
	C3492.072998,1406.907837 3494.447998,1407.041504 3498.053223,1407.246826 
	C3500.864746,1407.750000 3502.446045,1408.181641 3504.756836,1409.553223 
	C3507.746338,1410.880371 3510.006592,1411.267822 3513.238770,1411.777832 
	C3514.211182,1411.900513 3515.982666,1412.740356 3516.537109,1413.582275 
	C3518.354492,1414.680420 3519.617432,1414.936890 3522.230957,1415.510986 
	C3541.078613,1422.919312 3553.719727,1436.643188 3567.895752,1448.270264 
	C3569.671143,1451.805542 3570.916748,1455.755371 3573.306885,1458.809448 
	C3589.625977,1479.660278 3595.498047,1503.812378 3596.283447,1529.645508 
	C3596.404785,1533.640503 3596.328613,1537.641724 3596.328613,1541.640137 
	C3596.329590,2080.090576 3596.337646,2618.541016 3596.271240,3156.991455 
	C3596.269775,3167.630859 3596.852539,3178.577881 3594.677246,3188.855469 
	C3586.032227,3229.706055 3565.771484,3262.353271 3526.293457,3280.448975 
	C3522.186523,3282.331543 3518.355225,3284.815430 3511.894043,3287.224609 
	C3507.529297,3288.490723 3505.666016,3289.552246 3503.802734,3290.613770 
	C3502.123535,3291.090332 3500.444580,3291.567139 3496.147949,3291.798340 
	C3490.302002,3292.602539 3487.073486,3293.652344 3483.845215,3294.702148 
	C3483.199219,3294.933838 3482.553223,3295.165283 3479.937988,3295.551514 
	C3477.302490,3295.954346 3476.636475,3296.202393 3475.970459,3296.450684 
	C3467.997803,3296.232422 3460.024902,3295.823975 3452.052246,3295.823242 
	C3093.941406,3295.791748 2735.830322,3295.796875 2377.719482,3295.789307 
	C2369.066895,3295.789307 2360.414307,3295.695068 2349.927734,3295.264648 
	C2348.084717,3266.411621 2348.075684,3237.938477 2349.077637,3207.225098 
	C2350.773193,3204.729492 2351.457764,3204.473877 2353.772705,3204.471680 
	C2365.009521,3208.479492 2375.073486,3207.578613 2385.034912,3207.579102 
	C2696.245850,3207.592285 3007.456543,3207.623047 3318.667480,3207.519287 
	C3341.236816,3207.511963 3363.729736,3207.909424 3386.361328,3204.803955 
	C3406.720459,3202.010010 3424.842773,3195.758789 3441.754883,3184.471436 
	C3474.286377,3162.758057 3489.909912,3131.031250 3491.402832,3093.485840 
	C3493.228027,3047.586670 3491.655273,3001.552490 3491.735107,2954.104492 
	C3491.686279,2949.703857 3491.454102,2946.775391 3491.475098,2941.998047 
	C3491.769043,2934.820557 3491.845703,2929.491943 3491.845703,2924.163574 
	C3491.851074,2484.534424 3491.850098,2044.905396 3491.849121,1605.276367 
	C3491.849121,1601.279785 3491.901123,1597.281738 3491.816895,1593.286743 
	C3490.732910,1541.829590 3467.696289,1504.454834 3420.142090,1481.721924 
	C3418.526367,1480.159058 3417.345459,1479.953369 3415.099609,1480.068115 
	C3413.495117,1479.616455 3412.850586,1479.445190 3411.462402,1478.374512 
	C3408.485840,1477.130615 3406.253174,1476.785889 3402.733887,1476.193359 
	C3399.721191,1475.669678 3397.995850,1475.393799 3395.310059,1474.237061 
	C3390.923584,1473.062866 3387.497314,1472.769531 3382.989014,1472.427979 
	C3381.225830,1472.618408 3380.544678,1472.856934 3378.013672,1472.846924 
	C3372.171143,1472.548828 3368.177979,1472.456665 3364.184814,1472.456543 
	C3030.704590,1472.448242 2697.224365,1472.444946 2363.744141,1472.464966 
	C2358.426514,1472.465210 2353.108887,1472.756470 2348.000000,1472.540039 
	C2348.208740,1472.167969 2348.228516,1471.315186 2348.228516,1471.315186 
z"/>
<path fill="#F2EEE4" opacity="1.000000" stroke="none" 
	d="
M3488.025879,1404.965088 
	C3479.404053,1404.454224 3470.781982,1403.498413 3462.160156,1403.496704 
	C3094.007324,1403.424316 2725.854492,1403.436646 2357.701660,1403.445190 
	C2355.705322,1403.445190 2353.708740,1403.538940 2349.869629,1403.954468 
	C2341.391357,1404.023315 2334.756348,1403.467896 2328.121094,1403.467163 
	C1965.797119,1403.425781 1603.473145,1403.424683 1241.149170,1403.464844 
	C1231.166382,1403.465942 1221.183716,1403.961060 1208.329590,1404.195312 
	C1203.663696,1404.963745 1201.869019,1405.762817 1200.074463,1406.561768 
	C1198.136597,1406.965820 1196.198730,1407.369751 1192.058838,1407.864624 
	C1189.856689,1407.955566 1188.234497,1408.146729 1187.300781,1408.217896 
	C1185.062744,1408.679199 1184.205566,1409.523438 1183.795532,1410.821655 
	C1183.160400,1411.084839 1182.525146,1411.348022 1180.049316,1411.747925 
	C1176.994751,1412.093872 1176.166504,1412.773193 1175.723755,1413.922607 
	C1144.999878,1428.267090 1122.971924,1451.142578 1108.092285,1483.015137 
	C1105.402344,1483.406738 1103.628052,1482.711914 1101.438599,1481.854736 
	C1101.695190,1479.740601 1101.443115,1477.649780 1102.222534,1476.067017 
	C1107.513184,1465.323486 1111.851196,1453.860596 1118.688721,1444.178101 
	C1135.993774,1419.672852 1158.983521,1402.011841 1188.283691,1394.161377 
	C1202.932129,1390.236694 1217.911377,1387.862305 1233.399292,1387.869507 
	C1679.068359,1388.073975 2124.737549,1388.034180 2570.406738,1388.034302 
	C2867.519531,1388.034424 3164.632080,1387.922729 3461.744873,1388.172852 
	C3500.799805,1388.205688 3533.917969,1403.688477 3561.366211,1431.409058 
	C3565.242920,1435.324219 3568.379395,1439.442505 3567.978516,1446.787842 
	C3553.719727,1436.643188 3541.078613,1422.919312 3521.700684,1414.647217 
	C3518.540527,1413.223999 3517.261719,1412.982178 3515.982666,1412.740356 
	C3515.982666,1412.740356 3514.211182,1411.900513 3512.472656,1410.883057 
	C3508.498779,1409.448242 3506.262939,1409.030884 3504.027344,1408.613403 
	C3502.446045,1408.181641 3500.864746,1407.750000 3497.188721,1406.391235 
	C3492.738037,1405.297729 3490.381836,1405.131470 3488.025879,1404.965088 
z"/>
<path fill="#588281" opacity="1.000000" stroke="none" 
	d="
M3485.116211,3295.046387 
	C3487.073486,3293.652344 3490.302002,3292.602539 3494.833252,3291.839355 
	C3492.886475,3293.214600 3489.636719,3294.302734 3485.116211,3295.046387 
z"/>
<path fill="#647071" opacity="1.000000" stroke="none" 
	d="
M1204.091431,3293.221191 
	C1205.517944,3292.566650 1207.861450,3292.680420 1211.072510,3293.625488 
	C1209.629517,3294.301270 1207.318970,3294.145508 1204.091431,3293.221191 
z"/>
<path fill="#588281" opacity="1.000000" stroke="none" 
	d="
M3504.889160,3290.812012 
	C3505.666016,3289.552246 3507.529297,3288.490723 3510.505859,3287.609863 
	C3509.738281,3288.864014 3507.856934,3289.937012 3504.889160,3290.812012 
z"/>
<path fill="#E8F4F4" opacity="1.000000" stroke="none" 
	d="
M3476.362305,3297.070801 
	C3476.636475,3296.202393 3477.302490,3295.954346 3479.000244,3295.976318 
	C3478.939453,3296.727783 3477.846924,3297.209473 3476.362305,3297.070801 
z"/>
<path fill="#F0EEE2" opacity="1.000000" stroke="none" 
	d="
M1279.904175,1480.191040 
	C1280.561401,1480.040405 1281.218506,1479.889771 1283.754150,1479.661133 
	C1285.632690,1479.583130 1287.529175,1479.321045 1288.486450,1479.241455 
	C1290.734009,1478.725952 1291.668213,1477.891357 1292.246216,1476.657959 
	C1293.831543,1476.315063 1295.416748,1475.972168 1299.755249,1475.870728 
	C1305.640137,1476.026367 1308.771729,1475.940552 1312.753784,1475.690674 
	C1314.759155,1475.104492 1315.574219,1474.326294 1316.049316,1473.191895 
	C1322.024170,1472.950317 1327.999146,1472.497803 1333.973999,1472.497192 
	C1666.734131,1472.463989 1999.494263,1472.468262 2332.254395,1472.474243 
	C2334.916016,1472.474243 2337.577637,1472.549805 2342.536621,1473.608032 
	C2345.697510,1475.487793 2346.714844,1476.089844 2347.927734,1478.264282 
	C2347.979980,1939.251099 2347.991699,2398.405762 2347.981934,2857.560303 
	C2347.981689,2864.220947 2347.709961,2870.881348 2346.401855,2876.785889 
	C2334.740234,2863.988281 2324.129639,2852.042480 2313.766846,2839.885986 
	C2288.283936,2809.992920 2262.856934,2780.052002 2237.517578,2750.037109 
	C2212.610352,2720.534180 2187.863281,2690.896240 2163.000488,2661.355713 
	C2135.993652,2629.267578 2108.999512,2597.169189 2081.870361,2565.184570 
	C2068.518799,2549.443359 2054.844971,2533.976074 2041.375122,2518.334473 
	C2032.912842,2508.507812 2022.486938,2501.287354 2010.411621,2497.069824 
	C2000.427734,2493.582764 1990.029907,2490.280518 1979.588867,2489.291504 
	C1948.559448,2486.353027 1920.062988,2493.245361 1896.185913,2514.585938 
	C1891.220093,2519.024170 1886.529663,2523.798828 1881.342285,2527.956543 
	C1821.085327,2576.250977 1760.789551,2624.497070 1700.440796,2672.676758 
	C1617.200806,2739.131348 1533.844971,2805.440674 1450.655151,2871.957520 
	C1380.461304,2928.083252 1310.479614,2984.474121 1240.281128,3040.593750 
	C1229.932861,3048.866943 1218.905884,3056.291504 1207.435303,3063.929443 
	C1206.677612,3063.750244 1205.120483,3063.763428 1205.120361,3063.763428 
	C1204.852417,3056.450928 1204.350342,3049.138428 1204.349731,3041.825928 
	C1204.312988,2562.562012 1204.309937,2083.298096 1204.363159,1604.034180 
	C1204.364258,1594.055664 1204.044678,1583.915649 1205.604004,1574.126465 
	C1212.260254,1532.338257 1234.667114,1501.897217 1275.107422,1482.920044 
	C1278.494873,1482.093750 1279.374512,1481.349365 1279.904175,1480.191040 
M1764.889526,1928.994141 
	C1750.166016,1928.849609 1735.792725,1931.379150 1721.673096,1935.207031 
	C1679.587402,1946.616577 1645.251465,1969.640381 1620.888672,2005.914307 
	C1591.207031,2050.108154 1581.854614,2098.501465 1595.172363,2150.501953 
	C1604.897095,2188.472656 1624.912598,2220.363281 1655.489868,2244.801025 
	C1688.195801,2270.939941 1725.355713,2285.579346 1771.514526,2283.797119 
	C1833.892212,2281.638672 1882.455933,2254.231445 1916.407349,2202.260742 
	C1943.964722,2160.077637 1950.741455,2113.571289 1939.411377,2064.634033 
	C1930.887451,2027.817261 1911.371582,1997.410400 1883.011963,1972.653198 
	C1850.154419,1943.969360 1811.804688,1929.802002 1764.889526,1928.994141 
z"/>
<path fill="#6EA1A2" opacity="1.000000" stroke="none" 
	d="
M1208.193115,3064.108643 
	C1218.905884,3056.291504 1229.932861,3048.866943 1240.281128,3040.593750 
	C1310.479614,2984.474121 1380.461304,2928.083252 1450.655151,2871.957520 
	C1533.844971,2805.440674 1617.200806,2739.131348 1700.440796,2672.676758 
	C1760.789551,2624.497070 1821.085327,2576.250977 1881.342285,2527.956543 
	C1886.529663,2523.798828 1891.220093,2519.024170 1896.185913,2514.585938 
	C1920.062988,2493.245361 1948.559448,2486.353027 1979.588867,2489.291504 
	C1990.029907,2490.280518 2000.427734,2493.582764 2010.411621,2497.069824 
	C2022.486938,2501.287354 2032.912842,2508.507812 2041.375122,2518.334473 
	C2054.844971,2533.976074 2068.518799,2549.443359 2081.870361,2565.184570 
	C2108.999512,2597.169189 2135.993652,2629.267578 2163.000488,2661.355713 
	C2187.863281,2690.896240 2212.610352,2720.534180 2237.517578,2750.037109 
	C2262.856934,2780.052002 2288.283936,2809.992920 2313.766846,2839.885986 
	C2324.129639,2852.042480 2334.740234,2863.988281 2346.598145,2877.826172 
	C2349.346680,2881.233887 2350.735107,2882.845459 2352.085449,2886.291992 
	C2352.078613,2993.490723 2352.110596,3098.854492 2352.142578,3204.218018 
	C2351.457764,3204.473877 2350.773193,3204.729492 2349.104492,3205.473633 
	C2339.509033,3205.510010 2330.897705,3204.663330 2322.286133,3204.661377 
	C1995.354980,3204.594482 1668.423828,3204.605225 1341.492676,3204.602539 
	C1332.836670,3204.602539 1324.166870,3204.240479 1315.527222,3204.607910 
	C1277.149902,3206.239014 1227.781616,3175.800049 1211.906250,3130.049072 
	C1205.242310,3110.844482 1203.143311,3091.263428 1205.331543,3068.973145 
	C1207.306519,3066.163086 1207.937744,3065.268311 1208.193115,3064.108643 
z"/>
<path fill="#B0BEB4" opacity="1.000000" stroke="none" 
	d="
M1311.903442,1475.854736 
	C1308.771729,1475.940552 1305.640137,1476.026367 1300.970947,1475.794922 
	C1302.795044,1474.409424 1306.156616,1473.341187 1310.790283,1473.295166 
	C1312.062500,1474.317383 1311.903442,1475.854736 1311.903442,1475.854736 
z"/>
<path fill="#6EA1A2" opacity="1.000000" stroke="none" 
	d="
M1201.051758,1406.958618 
	C1201.869019,1405.762817 1203.663696,1404.963745 1206.435303,1404.476318 
	C1205.617798,1405.643799 1203.823364,1406.499634 1201.051758,1406.958618 
z"/>
<path fill="#D2D0C7" opacity="1.000000" stroke="none" 
	d="
M1207.435303,3063.929443 
	C1207.937744,3065.268311 1207.306519,3066.163086 1205.533203,3067.131104 
	C1204.766846,3067.469727 1204.498657,3065.574219 1204.809570,3064.668945 
	C1205.120483,3063.763428 1206.677612,3063.750244 1207.435303,3063.929443 
z"/>
<path fill="#6EA1A2" opacity="1.000000" stroke="none" 
	d="
M1279.033813,1480.113770 
	C1279.374512,1481.349365 1278.494873,1482.093750 1276.389160,1482.276367 
	C1276.020020,1480.953857 1276.903442,1480.256470 1279.033813,1480.113770 
z"/>
<path fill="#B0BEB4" opacity="1.000000" stroke="none" 
	d="
M1291.193848,1476.422119 
	C1291.668213,1477.891357 1290.734009,1478.725952 1288.622192,1478.537231 
	C1287.800659,1477.912598 1288.005981,1476.488892 1288.005981,1476.488892 
	C1288.717896,1476.387939 1289.429810,1476.287109 1291.193848,1476.422119 
z"/>
<path fill="#6EA1A2" opacity="1.000000" stroke="none" 
	d="
M1287.114258,1476.552002 
	C1288.005981,1476.488892 1287.800659,1477.912598 1287.664917,1478.616821 
	C1287.529175,1479.321045 1285.632690,1479.583130 1284.710449,1479.332520 
	C1284.181763,1477.846924 1284.993286,1477.024658 1287.114258,1476.552002 
z"/>
<path fill="#D2D0C7" opacity="1.000000" stroke="none" 
	d="
M2347.885986,1476.432129 
	C2346.714844,1476.089844 2345.697510,1475.487793 2344.392578,1473.850342 
	C2344.647217,1472.740967 2345.343506,1472.406982 2347.134033,1471.694092 
	C2348.228516,1471.315186 2348.208740,1472.167969 2348.072266,1473.418701 
	C2347.935547,1474.669312 2347.885986,1476.432129 2347.885986,1476.432129 
z"/>
<path fill="#D2D0C7" opacity="1.000000" stroke="none" 
	d="
M1312.753784,1475.690674 
	C1311.903442,1475.854736 1312.062500,1474.317383 1312.135864,1473.548340 
	C1312.209229,1472.779175 1314.180298,1472.514038 1315.114746,1472.853027 
	C1315.574219,1474.326294 1314.759155,1475.104492 1312.753784,1475.690674 
z"/>
<path fill="#B0BEB4" opacity="1.000000" stroke="none" 
	d="
M1176.559204,1414.071655 
	C1176.166504,1412.773193 1176.994751,1412.093872 1179.040283,1411.961548 
	C1179.405762,1413.174438 1178.579956,1413.901855 1176.559204,1414.071655 
z"/>
<path fill="#6EA1A2" opacity="1.000000" stroke="none" 
	d="
M1188.234497,1408.146729 
	C1188.234497,1408.146729 1189.856689,1407.955566 1190.618408,1408.224854 
	C1191.164429,1409.537964 1190.536987,1410.179443 1188.793335,1409.842896 
	C1188.088623,1409.267334 1188.234497,1408.146729 1188.234497,1408.146729 
z"/>
<path fill="#B0BEB4" opacity="1.000000" stroke="none" 
	d="
M1187.300781,1408.217896 
	C1188.234497,1408.146729 1188.088623,1409.267334 1188.080078,1409.824829 
	C1187.376465,1410.632446 1186.681396,1410.882446 1184.890991,1410.977051 
	C1184.205566,1409.523438 1185.062744,1408.679199 1187.300781,1408.217896 
z"/>
<path fill="#DDDBCF" opacity="1.000000" stroke="none" 
	d="
M2347.927734,1478.264282 
	C2347.885986,1476.432129 2347.935547,1474.669312 2347.863281,1473.790649 
	C2353.108887,1472.756470 2358.426514,1472.465210 2363.744141,1472.464966 
	C2697.224365,1472.444946 3030.704590,1472.448242 3364.184814,1472.456543 
	C3368.177979,1472.456665 3372.171143,1472.548828 3378.604980,1473.585205 
	C3381.045898,1474.572144 3382.772705,1475.358398 3382.772705,1475.358398 
	C3382.772705,1475.358398 3384.669434,1475.293457 3386.127930,1475.421875 
	C3390.481201,1475.406128 3393.375732,1475.261963 3396.270264,1475.117920 
	C3397.995850,1475.393799 3399.721191,1475.669678 3403.514160,1477.049072 
	C3407.789795,1478.526367 3409.998047,1478.900146 3412.206299,1479.273804 
	C3412.850586,1479.445190 3413.495117,1479.616455 3415.654053,1480.820557 
	C3417.168701,1481.853638 3418.824951,1482.729370 3418.824951,1482.729370 
	C3418.824951,1482.729370 3420.681885,1482.478149 3420.681885,1482.478149 
	C3467.696289,1504.454834 3490.732910,1541.829590 3491.816895,1593.286743 
	C3491.901123,1597.281738 3491.849121,1601.279785 3491.849121,1605.276367 
	C3491.850098,2044.905396 3491.851074,2484.534424 3491.845703,2924.163574 
	C3491.845703,2929.491943 3491.769043,2934.820557 3490.245361,2942.024170 
	C3487.123291,2943.962158 3485.484131,2944.024902 3482.885742,2943.124023 
	C3441.706299,2869.233887 3401.495361,2796.302002 3361.262207,2723.382080 
	C3332.294434,2670.879639 3303.331543,2618.374268 3274.305176,2565.904053 
	C3235.281494,2495.360596 3196.178955,2424.860840 3157.150391,2354.319580 
	C3139.732666,2322.838867 3122.255127,2291.389404 3105.117188,2259.756348 
	C3096.202148,2243.300781 3083.338135,2231.326172 3066.597900,2223.355469 
	C3020.476074,2201.394287 2973.768066,2201.930664 2927.286377,2221.391113 
	C2911.940186,2227.816162 2898.937744,2238.371582 2888.068604,2251.618896 
	C2863.560059,2281.489746 2838.408447,2310.834229 2813.444336,2340.330078 
	C2780.301758,2379.489746 2747.026855,2418.537354 2713.920898,2457.727783 
	C2673.937988,2505.059326 2634.115723,2552.526367 2594.143066,2599.866455 
	C2562.335205,2637.536621 2530.340576,2675.049316 2498.546143,2712.731201 
	C2459.020752,2759.575439 2419.683594,2806.578369 2380.107910,2853.379639 
	C2371.111328,2864.019043 2361.468994,2874.112305 2352.123779,2884.456787 
	C2350.735107,2882.845459 2349.346680,2881.233887 2347.761719,2878.582275 
	C2347.709961,2870.881348 2347.981689,2864.220947 2347.981934,2857.560303 
	C2347.991699,2398.405762 2347.979980,1939.251099 2347.927734,1478.264282 
z"/>
<path fill="#588281" opacity="1.000000" stroke="none" 
	d="
M2352.085449,2886.291992 
	C2361.468994,2874.112305 2371.111328,2864.019043 2380.107910,2853.379639 
	C2419.683594,2806.578369 2459.020752,2759.575439 2498.546143,2712.731201 
	C2530.340576,2675.049316 2562.335205,2637.536621 2594.143066,2599.866455 
	C2634.115723,2552.526367 2673.937988,2505.059326 2713.920898,2457.727783 
	C2747.026855,2418.537354 2780.301758,2379.489746 2813.444336,2340.330078 
	C2838.408447,2310.834229 2863.560059,2281.489746 2888.068604,2251.618896 
	C2898.937744,2238.371582 2911.940186,2227.816162 2927.286377,2221.391113 
	C2973.768066,2201.930664 3020.476074,2201.394287 3066.597900,2223.355469 
	C3083.338135,2231.326172 3096.202148,2243.300781 3105.117188,2259.756348 
	C3122.255127,2291.389404 3139.732666,2322.838867 3157.150391,2354.319580 
	C3196.178955,2424.860840 3235.281494,2495.360596 3274.305176,2565.904053 
	C3303.331543,2618.374268 3332.294434,2670.879639 3361.262207,2723.382080 
	C3401.495361,2796.302002 3441.706299,2869.233887 3482.986328,2944.348145 
	C3486.548096,2949.549561 3489.050049,2952.562988 3491.551758,2955.576660 
	C3491.655273,3001.552490 3493.228027,3047.586670 3491.402832,3093.485840 
	C3489.909912,3131.031250 3474.286377,3162.758057 3441.754883,3184.471436 
	C3424.842773,3195.758789 3406.720459,3202.010010 3386.361328,3204.803955 
	C3363.729736,3207.909424 3341.236816,3207.511963 3318.667480,3207.519287 
	C3007.456543,3207.623047 2696.245850,3207.592285 2385.034912,3207.579102 
	C2375.073486,3207.578613 2365.009521,3208.479492 2353.772705,3204.471680 
	C2352.110596,3098.854492 2352.078613,2993.490723 2352.085449,2886.291992 
z"/>
<path fill="#C4C3B9" opacity="1.000000" stroke="none" 
	d="
M3491.735352,2954.104492 
	C3489.050049,2952.562988 3486.548096,2949.549561 3483.945557,2945.311768 
	C3485.484131,2944.024902 3487.123291,2943.962158 3489.992188,2943.873047 
	C3491.454102,2946.775391 3491.686279,2949.703857 3491.735352,2954.104492 
z"/>
<path fill="#6EA1A2" opacity="1.000000" stroke="none" 
	d="
M3395.310059,1474.237061 
	C3393.375732,1475.261963 3390.481201,1475.406128 3385.949707,1474.725586 
	C3384.312500,1473.900757 3384.070801,1472.476318 3384.070801,1472.476318 
	C3387.497314,1472.769531 3390.923584,1473.062866 3395.310059,1474.237061 
z"/>
<path fill="#647071" opacity="1.000000" stroke="none" 
	d="
M3504.756836,1409.553223 
	C3506.262939,1409.030884 3508.498779,1409.448242 3511.500488,1410.760376 
	C3510.006592,1411.267822 3507.746338,1410.880371 3504.756836,1409.553223 
z"/>
<path fill="#647071" opacity="1.000000" stroke="none" 
	d="
M3488.862061,1405.869629 
	C3490.381836,1405.131470 3492.738037,1405.297729 3495.958496,1406.319702 
	C3494.447998,1407.041504 3492.072998,1406.907837 3488.862061,1405.869629 
z"/>
<path fill="#6EA1A2" opacity="1.000000" stroke="none" 
	d="
M3411.462402,1478.374512 
	C3409.998047,1478.900146 3407.789795,1478.526367 3404.801270,1477.296875 
	C3406.253174,1476.785889 3408.485840,1477.130615 3411.462402,1478.374512 
z"/>
<path fill="#6EA1A2" opacity="1.000000" stroke="none" 
	d="
M3420.142090,1481.721924 
	C3420.681885,1482.478149 3418.824951,1482.729370 3418.824951,1482.729370 
	C3418.824951,1482.729370 3417.168701,1481.853638 3416.614258,1481.101074 
	C3417.345459,1479.953369 3418.526367,1480.159058 3420.142090,1481.721924 
z"/>
<path fill="#B0BEB4" opacity="1.000000" stroke="none" 
	d="
M3382.989014,1472.427979 
	C3384.070801,1472.476318 3384.312500,1473.900757 3384.490967,1474.597168 
	C3384.669434,1475.293457 3382.772705,1475.358398 3382.772705,1475.358398 
	C3382.772705,1475.358398 3381.045898,1474.572144 3380.454590,1473.833862 
	C3380.544678,1472.856934 3381.225830,1472.618408 3382.989014,1472.427979 
z"/>
<path fill="#647071" opacity="1.000000" stroke="none" 
	d="
M3516.537109,1413.582275 
	C3517.261719,1412.982178 3518.540527,1413.223999 3520.349854,1414.329590 
	C3519.617432,1414.936890 3518.354492,1414.680420 3516.537109,1413.582275 
z"/>
<path fill="#E6BA5A" opacity="1.000000" stroke="none" 
	d="
M1768.046631,2283.239746 
	C1725.355713,2285.579346 1688.195801,2270.939941 1655.489868,2244.801025 
	C1624.912598,2220.363281 1604.897095,2188.472656 1595.172363,2150.501953 
	C1581.854614,2098.501465 1591.207031,2050.108154 1620.888672,2005.914307 
	C1645.251465,1969.640381 1679.587402,1946.616577 1721.673096,1935.207031 
	C1735.792725,1931.379150 1750.166016,1928.849609 1766.481201,1931.132080 
	C1768.064209,2049.926758 1768.055420,2166.583252 1768.046631,2283.239746 
z"/>
<path fill="#C7A350" opacity="1.000000" stroke="none" 
	d="
M1769.780518,2283.518555 
	C1768.055420,2166.583252 1768.064209,2049.926758 1768.135010,1931.555786 
	C1811.804688,1929.802002 1850.154419,1943.969360 1883.011963,1972.653198 
	C1911.371582,1997.410400 1930.887451,2027.817261 1939.411377,2064.634033 
	C1950.741455,2113.571289 1943.964722,2160.077637 1916.407349,2202.260742 
	C1882.455933,2254.231445 1833.892212,2281.638672 1769.780518,2283.518555 
z"/>
</svg>