<svg width="46" height="47" viewBox="0 0 46 47" fill="none" xmlns="http://www.w3.org/2000/svg">
<path d="M15.1912 40.7048H7.71808C7.22259 40.7048 6.74739 40.5043 6.39702 40.1473C6.04665 39.7903 5.84982 39.3061 5.84982 38.8013V31.1872C5.84982 30.6824 5.65298 30.1982 5.30261 29.8412C4.95225 29.4842 4.47704 29.2837 3.98155 29.2837C3.48605 29.2837 3.01085 29.4842 2.66048 29.8412C2.31012 30.1982 2.11328 30.6824 2.11328 31.1872V38.8013C2.11328 40.3158 2.70379 41.7683 3.75489 42.8393C4.80599 43.9102 6.2316 44.5118 7.71808 44.5118H15.1912C15.6866 44.5118 16.1618 44.3113 16.5122 43.9543C16.8626 43.5973 17.0594 43.1132 17.0594 42.6083C17.0594 42.1035 16.8626 41.6193 16.5122 41.2623C16.1618 40.9053 15.6866 40.7048 15.1912 40.7048ZM41.3469 29.2837C40.8514 29.2837 40.3762 29.4842 40.0258 29.8412C39.6755 30.1982 39.4786 30.6824 39.4786 31.1872V38.8013C39.4786 39.3061 39.2818 39.7903 38.9314 40.1473C38.5811 40.5043 38.1059 40.7048 37.6104 40.7048H30.1373C29.6418 40.7048 29.1666 40.9053 28.8162 41.2623C28.4659 41.6193 28.269 42.1035 28.269 42.6083C28.269 43.1132 28.4659 43.5973 28.8162 43.9543C29.1666 44.3113 29.6418 44.5118 30.1373 44.5118H37.6104C39.0969 44.5118 40.5225 43.9102 41.5736 42.8393C42.6247 41.7683 43.2152 40.3158 43.2152 38.8013V31.1872C43.2152 30.6824 43.0183 30.1982 42.668 29.8412C42.3176 29.4842 41.8424 29.2837 41.3469 29.2837ZM37.6104 2.63444H30.1373C29.6418 2.63444 29.1666 2.83499 28.8162 3.19197C28.4659 3.54895 28.269 4.03312 28.269 4.53796C28.269 5.04281 28.4659 5.52697 28.8162 5.88395C29.1666 6.24093 29.6418 6.44148 30.1373 6.44148H37.6104C38.1059 6.44148 38.5811 6.64203 38.9314 6.99901C39.2818 7.35599 39.4786 7.84015 39.4786 8.345V15.9591C39.4786 16.4639 39.6755 16.9481 40.0258 17.3051C40.3762 17.662 40.8514 17.8626 41.3469 17.8626C41.8424 17.8626 42.3176 17.662 42.668 17.3051C43.0183 16.9481 43.2152 16.4639 43.2152 15.9591V8.345C43.2152 6.83046 42.6247 5.37796 41.5736 4.30703C40.5225 3.23609 39.0969 2.63444 37.6104 2.63444ZM3.98155 17.8626C4.47704 17.8626 4.95225 17.662 5.30261 17.3051C5.65298 16.9481 5.84982 16.4639 5.84982 15.9591V8.345C5.84982 7.84015 6.04665 7.35599 6.39702 6.99901C6.74739 6.64203 7.22259 6.44148 7.71808 6.44148H15.1912C15.6866 6.44148 16.1618 6.24093 16.5122 5.88395C16.8626 5.52697 17.0594 5.04281 17.0594 4.53796C17.0594 4.03312 16.8626 3.54895 16.5122 3.19197C16.1618 2.83499 15.6866 2.63444 15.1912 2.63444H7.71808C6.2316 2.63444 4.80599 3.23609 3.75489 4.30703C2.70379 5.37796 2.11328 6.83046 2.11328 8.345V15.9591C2.11328 16.4639 2.31012 16.9481 2.66048 17.3051C3.01085 17.662 3.48605 17.8626 3.98155 17.8626ZM18.9277 10.2485H11.4546C10.9591 10.2485 10.4839 10.4491 10.1336 10.806C9.78319 11.163 9.58635 11.6472 9.58635 12.152V19.7661C9.58635 20.2709 9.78319 20.7551 10.1336 21.1121C10.4839 21.4691 10.9591 21.6696 11.4546 21.6696H18.9277C19.4232 21.6696 19.8984 21.4691 20.2488 21.1121C20.5991 20.7551 20.796 20.2709 20.796 19.7661V12.152C20.796 11.6472 20.5991 11.163 20.2488 10.806C19.8984 10.4491 19.4232 10.2485 18.9277 10.2485ZM17.0594 17.8626H13.3229V14.0556H17.0594V17.8626ZM26.4008 21.6696H33.8738C34.3693 21.6696 34.8445 21.4691 35.1949 21.1121C35.5453 20.7551 35.7421 20.2709 35.7421 19.7661V12.152C35.7421 11.6472 35.5453 11.163 35.1949 10.806C34.8445 10.4491 34.3693 10.2485 33.8738 10.2485H26.4008C25.9053 10.2485 25.4301 10.4491 25.0797 10.806C24.7293 11.163 24.5325 11.6472 24.5325 12.152V19.7661C24.5325 20.2709 24.7293 20.7551 25.0797 21.1121C25.4301 21.4691 25.9053 21.6696 26.4008 21.6696ZM28.269 14.0556H32.0056V17.8626H28.269V14.0556ZM18.9277 25.4767H11.4546C10.9591 25.4767 10.4839 25.6772 10.1336 26.0342C9.78319 26.3912 9.58635 26.8753 9.58635 27.3802V34.9942C9.58635 35.4991 9.78319 35.9833 10.1336 36.3402C10.4839 36.6972 10.9591 36.8978 11.4546 36.8978H18.9277C19.4232 36.8978 19.8984 36.6972 20.2488 36.3402C20.5991 35.9833 20.796 35.4991 20.796 34.9942V27.3802C20.796 26.8753 20.5991 26.3912 20.2488 26.0342C19.8984 25.6772 19.4232 25.4767 18.9277 25.4767ZM17.0594 33.0907H13.3229V29.2837H17.0594V33.0907ZM26.4008 31.1872C26.8963 31.1872 27.3715 30.9867 27.7218 30.6297C28.0722 30.2727 28.269 29.7885 28.269 29.2837C28.7645 29.2837 29.2397 29.0831 29.5901 28.7262C29.9405 28.3692 30.1373 27.885 30.1373 27.3802C30.1373 26.8753 29.9405 26.3912 29.5901 26.0342C29.2397 25.6772 28.7645 25.4767 28.269 25.4767H26.4008C25.9053 25.4767 25.4301 25.6772 25.0797 26.0342C24.7293 26.3912 24.5325 26.8753 24.5325 27.3802V29.2837C24.5325 29.7885 24.7293 30.2727 25.0797 30.6297C25.4301 30.9867 25.9053 31.1872 26.4008 31.1872ZM33.8738 25.4767C33.3783 25.4767 32.9031 25.6772 32.5528 26.0342C32.2024 26.3912 32.0056 26.8753 32.0056 27.3802V33.0907C31.5101 33.0907 31.0349 33.2913 30.6845 33.6483C30.3341 34.0052 30.1373 34.4894 30.1373 34.9942C30.1373 35.4991 30.3341 35.9833 30.6845 36.3402C31.0349 36.6972 31.5101 36.8978 32.0056 36.8978H33.8738C34.3693 36.8978 34.8445 36.6972 35.1949 36.3402C35.5453 35.9833 35.7421 35.4991 35.7421 34.9942V27.3802C35.7421 26.8753 35.5453 26.3912 35.1949 26.0342C34.8445 25.6772 34.3693 25.4767 33.8738 25.4767ZM26.4008 33.0907C26.0312 33.0907 25.67 33.2024 25.3628 33.4115C25.0556 33.6207 24.8161 33.918 24.6747 34.2658C24.5333 34.6136 24.4963 34.9964 24.5684 35.3656C24.6405 35.7349 24.8184 36.074 25.0797 36.3402C25.341 36.6065 25.6739 36.7877 26.0363 36.8612C26.3987 36.9346 26.7743 36.8969 27.1157 36.7529C27.4571 36.6088 27.7489 36.3648 27.9542 36.0518C28.1595 35.7388 28.269 35.3707 28.269 34.9942C28.269 34.4894 28.0722 34.0052 27.7218 33.6483C27.3715 33.2913 26.8963 33.0907 26.4008 33.0907Z" fill="white"/>
</svg>
