<svg width="41" height="41" viewBox="0 0 41 41" fill="none" xmlns="http://www.w3.org/2000/svg">
<path d="M32.05 20.7106C32.4173 23.4916 31.9041 26.3179 30.5826 28.7923C29.261 31.2667 27.1974 33.2648 24.6818 34.5061C22.1661 35.7473 19.3248 36.1693 16.557 35.7126C13.7892 35.2559 11.2341 33.9436 9.25049 31.9601C7.26691 29.9765 5.9546 27.4213 5.49794 24.6535C5.04128 21.8857 5.46321 19.0444 6.70446 16.5288C7.9457 14.0131 9.94388 11.9496 12.4183 10.628C14.8927 9.30641 17.7189 8.79324 20.5 9.16057V5.71057H18.8333C15.5369 5.71057 12.3146 6.68805 9.5738 8.51941C6.83298 10.3508 4.69677 12.9537 3.43531 15.9992C2.17385 19.0446 1.84379 22.3957 2.48688 25.6287C3.12997 28.8618 4.71731 31.8315 7.04819 34.1624C9.37906 36.4932 12.3488 38.0806 15.5818 38.7237C18.8148 39.3667 22.1659 39.0367 25.2114 37.7752C28.2568 36.5138 30.8598 34.3776 32.6911 31.6367C34.5225 28.8959 35.5 25.6736 35.5 22.3772V20.7106H32.05Z" fill="#2F9AE4"/>
<path d="M34.44 6.77053C33.0471 5.37766 31.3935 4.27277 29.5737 3.51896C27.7538 2.76515 25.8032 2.37718 23.8334 2.3772V17.3772H38.8334C38.8334 15.4074 38.4454 13.4568 37.6916 11.6369C36.9378 9.81702 35.8329 8.16342 34.44 6.77053ZM27.1667 6.20053C29.0216 6.75562 30.7094 7.76298 32.0785 9.13205C33.4476 10.5011 34.455 12.189 35.01 14.0439H27.1667V6.20053Z" fill="#2F9AE4"/>
</svg>
