<svg width="30" height="30" viewBox="0 0 30 30" fill="none" xmlns="http://www.w3.org/2000/svg">
<path d="M22.5 19.6875C22.5 21.2408 21.2408 22.5 19.6875 22.5C18.1342 22.5 16.875 21.2408 16.875 19.6875V8.4375C16.875 6.8842 18.1342 5.625 19.6875 5.625C21.2408 5.625 22.5 6.8842 22.5 8.4375V19.6875ZM19.6875 7.5C19.1697 7.5 18.75 7.91973 18.75 8.4375V19.6875C18.75 20.2053 19.1697 20.625 19.6875 20.625C20.2053 20.625 20.625 20.2053 20.625 19.6875V8.4375C20.625 7.91973 20.2053 7.5 19.6875 7.5ZM15 19.6875C15 21.2408 13.7408 22.5 12.1875 22.5C10.6342 22.5 9.375 21.2408 9.375 19.6875V12.1875C9.375 10.6342 10.6342 9.375 12.1875 9.375C13.7408 9.375 15 10.6342 15 12.1875V19.6875ZM12.1875 11.25C11.6697 11.25 11.25 11.6697 11.25 12.1875V19.6875C11.25 20.2053 11.6697 20.625 12.1875 20.625C12.7053 20.625 13.125 20.2053 13.125 19.6875V12.1875C13.125 11.6697 12.7053 11.25 12.1875 11.25ZM1.875 3.75C1.875 1.67893 3.55393 0 5.625 0H24.125C26.3341 0 28.125 1.79086 28.125 4V24.125C28.125 26.3341 26.3341 28.125 24.125 28.125H4.6875C3.1342 28.125 1.875 26.8658 1.875 25.3125V23.4375C1.875 22.9197 1.45527 22.5 0.9375 22.5C0.419733 22.5 0 22.0803 0 21.5625C0 21.0447 0.419733 20.625 0.9375 20.625C1.45527 20.625 1.875 20.2053 1.875 19.6875V10.3125C1.875 9.79473 1.45527 9.375 0.9375 9.375C0.419733 9.375 0 8.95527 0 8.4375C0 7.91973 0.419733 7.5 0.9375 7.5C1.45527 7.5 1.875 7.08027 1.875 6.5625V3.75ZM22.25 26.25C24.4591 26.25 26.25 24.4591 26.25 22.25V5.875C26.25 3.66586 24.4591 1.875 22.25 1.875H6.5625C5.0092 1.875 3.75 3.1342 3.75 4.6875V6.5625C3.75 7.08027 4.16973 7.5 4.6875 7.5C5.20527 7.5 5.625 7.91973 5.625 8.4375C5.625 8.95527 5.20527 9.375 4.6875 9.375C4.16973 9.375 3.75 9.79473 3.75 10.3125V19.6875C3.75 20.2053 4.16973 20.625 4.6875 20.625C5.20527 20.625 5.625 21.0447 5.625 21.5625C5.625 22.0803 5.20527 22.5 4.6875 22.5C4.16973 22.5 3.75 22.9197 3.75 23.4375V24.375C3.75 25.4105 4.58947 26.25 5.625 26.25H22.25Z" fill="#2F9AE4"/>
</svg>
