<svg width="55" height="54" viewBox="0 0 55 54" fill="none" xmlns="http://www.w3.org/2000/svg">
<circle cx="27.5" cy="27.0043" r="27.0043" fill="#4ACC4E" fill-opacity="0.1"/>
<circle cx="27.5" cy="27.0044" r="21.6797" fill="#4ACC4E"/>
<path d="M32.8887 17.2376C33.7772 16.0042 35.6173 15.5186 36.9987 16.153C38.3801 16.7873 38.7797 18.3014 37.8912 19.5348L25.4746 36.7712C24.5861 38.0045 22.746 38.4901 21.3646 37.8558C19.9832 37.2215 19.5836 35.7074 20.4721 34.474L32.8887 17.2376Z" fill="white"/>
<path d="M16.844 30.885C16.1017 29.5281 16.6838 28.0154 18.1442 27.5061C19.6045 26.9968 21.3901 27.6839 22.1324 29.0407L25.1501 34.5567C25.8924 35.9135 25.3103 37.4263 23.8499 37.9356C22.3896 38.4449 20.604 37.7578 19.8617 36.401L16.844 30.885Z" fill="white"/>
</svg>
