<svg width="24" height="25" viewBox="0 0 24 25" fill="none" xmlns="http://www.w3.org/2000/svg">
<path d="M14.7891 9.49997C15.3006 9.49997 15.7911 9.70315 16.1528 10.0648C16.5145 10.4265 16.7177 10.917 16.7177 11.4285V16.7848C16.7177 18.0354 16.2209 19.2347 15.3366 20.1189C14.4524 21.0032 13.2531 21.5 12.0025 21.5C10.752 21.5 9.55267 21.0032 8.66841 20.1189C7.78415 19.2347 7.28738 18.0354 7.28738 16.7848V11.4285C7.28738 10.917 7.49057 10.4265 7.85224 10.0648C8.21392 9.70315 8.70446 9.49997 9.21595 9.49997H14.7891ZM14.7891 10.7857H9.21595C9.04545 10.7857 8.88194 10.8534 8.76138 10.974C8.64082 11.0945 8.57309 11.258 8.57309 11.4285V16.7848C8.57309 17.6944 8.9344 18.5667 9.57755 19.2098C10.2207 19.8529 11.093 20.2143 12.0025 20.2143C12.9121 20.2143 13.7843 19.8529 14.4275 19.2098C15.0706 18.5667 15.4319 17.6944 15.4319 16.7848V11.4285C15.4319 11.258 15.3642 11.0945 15.2437 10.974C15.1231 10.8534 14.9596 10.7857 14.7891 10.7857ZM3.64281 9.49997H7.20509C6.86086 9.85818 6.61903 10.3022 6.50481 10.7857H3.64281C3.47231 10.7857 3.3088 10.8534 3.18824 10.974C3.06768 11.0945 2.99995 11.258 2.99995 11.4285V15.9277C2.99961 16.3578 3.10719 16.7812 3.31283 17.159C3.51848 17.5368 3.81562 17.857 4.17705 18.0903C4.53847 18.3235 4.95264 18.4624 5.38162 18.4941C5.81061 18.5259 6.2407 18.4495 6.63252 18.272C6.74652 18.692 6.91023 19.0914 7.11595 19.4651C6.52871 19.7217 5.88678 19.828 5.24816 19.7743C4.60955 19.7206 3.99438 19.5086 3.45824 19.1575C2.9221 18.8064 2.4819 18.3273 2.17741 17.7634C1.87291 17.1994 1.71373 16.5685 1.71423 15.9277V11.4285C1.71423 10.917 1.91742 10.4265 2.2791 10.0648C2.64078 9.70315 3.13132 9.49997 3.64281 9.49997ZM20.3571 9.49997C20.8686 9.49997 21.3591 9.70315 21.7208 10.0648C22.0825 10.4265 22.2857 10.917 22.2857 11.4285V15.9285C22.2859 16.569 22.1267 17.1994 21.8224 17.7629C21.5181 18.3264 21.0783 18.8053 20.5426 19.1563C20.0069 19.5073 19.3923 19.7194 18.7542 19.7735C18.116 19.8275 17.4745 19.7219 16.8874 19.466L16.9354 19.3785C17.1188 19.0305 17.2671 18.6611 17.3734 18.2737C17.765 18.4499 18.1945 18.5252 18.6227 18.4928C19.051 18.4604 19.4642 18.3212 19.8248 18.088C20.1855 17.8548 20.4819 17.535 20.6872 17.1578C20.8925 16.7806 21 16.358 21 15.9285V11.4285C21 11.2582 20.9323 11.0948 20.812 10.9743C20.6916 10.8537 20.5283 10.7859 20.3579 10.7857H17.5011C17.3866 10.3021 17.1445 9.85809 16.7999 9.49997H20.3571ZM11.9999 2.64282C12.3939 2.64282 12.784 2.72042 13.148 2.87118C13.512 3.02195 13.8427 3.24293 14.1213 3.5215C14.3998 3.80008 14.6208 4.1308 14.7716 4.49477C14.9224 4.85875 14.9999 5.24886 14.9999 5.64282C14.9999 6.03679 14.9224 6.4269 14.7716 6.79087C14.6208 7.15485 14.3998 7.48557 14.1213 7.76414C13.8427 8.04272 13.512 8.2637 13.148 8.41446C12.784 8.56523 12.3939 8.64282 11.9999 8.64282C11.2043 8.64282 10.4412 8.32675 9.87863 7.76414C9.31602 7.20153 8.99995 6.43847 8.99995 5.64282C8.99995 4.84717 9.31602 4.08411 9.87863 3.5215C10.4412 2.95889 11.2043 2.64282 11.9999 2.64282ZM18.8597 3.49997C19.1973 3.49997 19.5317 3.56648 19.8437 3.6957C20.1557 3.82493 20.4392 4.01434 20.6779 4.25312C20.9167 4.4919 21.1061 4.77537 21.2354 5.08735C21.3646 5.39933 21.4311 5.73371 21.4311 6.07139C21.4311 6.40908 21.3646 6.74346 21.2354 7.05544C21.1061 7.36742 20.9167 7.65089 20.6779 7.88967C20.4392 8.12845 20.1557 8.31786 19.8437 8.44708C19.5317 8.57631 19.1973 8.64282 18.8597 8.64282C18.1777 8.64282 17.5236 8.3719 17.0414 7.88967C16.5592 7.40743 16.2882 6.75338 16.2882 6.07139C16.2882 5.38941 16.5592 4.73536 17.0414 4.25312C17.5236 3.77088 18.1777 3.49997 18.8597 3.49997ZM5.14023 3.49997C5.47792 3.49997 5.8123 3.56648 6.12428 3.6957C6.43626 3.82493 6.71973 4.01434 6.95851 4.25312C7.19729 4.4919 7.3867 4.77537 7.51592 5.08735C7.64515 5.39933 7.71166 5.73371 7.71166 6.07139C7.71166 6.40908 7.64515 6.74346 7.51592 7.05544C7.3867 7.36742 7.19729 7.65089 6.95851 7.88967C6.71973 8.12845 6.43626 8.31786 6.12428 8.44708C5.8123 8.57631 5.47792 8.64282 5.14023 8.64282C4.45825 8.64282 3.8042 8.3719 3.32196 7.88967C2.83972 7.40743 2.56881 6.75338 2.56881 6.07139C2.56881 5.38941 2.83972 4.73536 3.32196 4.25312C3.8042 3.77088 4.45825 3.49997 5.14023 3.49997ZM11.9999 3.92854C11.5453 3.92854 11.1093 4.10915 10.7878 4.43064C10.4663 4.75213 10.2857 5.18817 10.2857 5.64282C10.2857 6.09748 10.4663 6.53351 10.7878 6.85501C11.1093 7.1765 11.5453 7.35711 11.9999 7.35711C12.4546 7.35711 12.8906 7.1765 13.2121 6.85501C13.5336 6.53351 13.7142 6.09748 13.7142 5.64282C13.7142 5.18817 13.5336 4.75213 13.2121 4.43064C12.8906 4.10915 12.4546 3.92854 11.9999 3.92854ZM18.8597 4.78568C18.6908 4.78568 18.5236 4.81894 18.3676 4.88355C18.2117 4.94816 18.0699 5.04287 17.9505 5.16226C17.8311 5.28165 17.7364 5.42338 17.6718 5.57937C17.6072 5.73536 17.5739 5.90255 17.5739 6.07139C17.5739 6.24024 17.6072 6.40743 17.6718 6.56342C17.7364 6.71941 17.8311 6.86114 17.9505 6.98053C18.0699 7.09992 18.2117 7.19463 18.3676 7.25924C18.5236 7.32385 18.6908 7.35711 18.8597 7.35711C19.2007 7.35711 19.5277 7.22165 19.7688 6.98053C20.0099 6.73941 20.1454 6.41239 20.1454 6.07139C20.1454 5.7304 20.0099 5.40337 19.7688 5.16226C19.5277 4.92114 19.2007 4.78568 18.8597 4.78568ZM5.14023 4.78568C4.97139 4.78568 4.8042 4.81894 4.64821 4.88355C4.49222 4.94816 4.35049 5.04287 4.2311 5.16226C4.11171 5.28165 4.017 5.42338 3.95239 5.57937C3.88778 5.73536 3.85452 5.90255 3.85452 6.07139C3.85452 6.24024 3.88778 6.40743 3.95239 6.56342C4.017 6.71941 4.11171 6.86114 4.2311 6.98053C4.35049 7.09992 4.49222 7.19463 4.64821 7.25924C4.8042 7.32385 4.97139 7.35711 5.14023 7.35711C5.48123 7.35711 5.80825 7.22165 6.04937 6.98053C6.29049 6.73941 6.42595 6.41239 6.42595 6.07139C6.42595 5.7304 6.29049 5.40337 6.04937 5.16226C5.80825 4.92114 5.48123 4.78568 5.14023 4.78568Z" fill="#1D2846" fill-opacity="0.5"/>
</svg>
